<?xml version="1.0" standalone="no"?>
<!DOCTYPE svg PUBLIC "-//W3C//DTD SVG 20010904//EN"
 "http://www.w3.org/TR/2001/REC-SVG-20010904/DTD/svg10.dtd">
<svg version="1.0" xmlns="http://www.w3.org/2000/svg"
 width="700.000000pt" height="700.000000pt" viewBox="0 0 700.000000 700.000000"
 preserveAspectRatio="xMidYMid meet">
<metadata>
Created by potrace 1.15, written by Peter Selinger 2001-2017
</metadata>
<g transform="translate(0.000000,700.000000) scale(0.100000,-0.100000)"
fill="#000000" stroke="none">
<path d="M3100 6713 c-75 -9 -268 -56 -349 -85 -487 -170 -883 -572 -1045
-1059 -69 -205 -80 -286 -80 -549 0 -206 2 -248 22 -337 32 -148 75 -272 142
-411 106 -219 1522 -2952 1530 -2952 10 0 1521 2923 1571 3041 51 118 95 274
115 413 23 153 15 449 -16 590 -112 520 -442 949 -908 1181 -132 66 -243 105
-398 141 -108 25 -140 28 -334 30 -118 1 -231 0 -250 -3z m380 -1018 c221 -52
424 -239 497 -459 24 -72 27 -96 27 -216 1 -121 -2 -143 -26 -211 -40 -112
-92 -195 -177 -279 -360 -357 -963 -214 -1135 269 -29 80 -31 96 -31 221 0
116 3 145 24 205 39 118 87 193 180 285 139 139 281 198 476 199 57 0 128 -6
165 -14z"/>
</g>
</svg>
